<mxfile host="app.diagrams.net" agent="Mozilla/5.0 (Windows NT 10.0; Win64; x64) AppleWebKit/537.36 (KHTML, like Gecko) Chrome/136.0.0.0 Safari/537.36" version="27.0.6">
  <diagram name="Página-1" id="KQsrEmijEbMgjs4g3RlA">
    <mxGraphModel dx="867" dy="209" grid="1" gridSize="10" guides="1" tooltips="1" connect="1" arrows="1" fold="1" page="1" pageScale="1" pageWidth="827" pageHeight="1169" math="0" shadow="0">
      <root>
        <mxCell id="0" />
        <mxCell id="1" parent="0" />
        <mxCell id="j0OqBsVxtlCFyyd33KA1-1" value="Cuenta" style="swimlane;fontStyle=1;align=center;verticalAlign=top;childLayout=stackLayout;horizontal=1;startSize=26;horizontalStack=0;resizeParent=1;resizeParentMax=0;resizeLast=0;collapsible=1;marginBottom=0;whiteSpace=wrap;html=1;" parent="1" vertex="1">
          <mxGeometry x="110" y="170" width="320" height="230" as="geometry" />
        </mxCell>
        <mxCell id="j0OqBsVxtlCFyyd33KA1-2" value="#saldo: float&lt;div&gt;#númeroConsignaciones: int = 0&lt;/div&gt;&lt;div&gt;#númeroRetiros: int = 0&lt;/div&gt;&lt;div&gt;#tasaAnual: float&lt;/div&gt;&lt;div&gt;#comisiónMensual: float = 0&lt;/div&gt;&lt;div&gt;&lt;br&gt;&lt;/div&gt;" style="text;strokeColor=none;fillColor=none;align=left;verticalAlign=top;spacingLeft=4;spacingRight=4;overflow=hidden;rotatable=0;points=[[0,0.5],[1,0.5]];portConstraint=eastwest;whiteSpace=wrap;html=1;" parent="j0OqBsVxtlCFyyd33KA1-1" vertex="1">
          <mxGeometry y="26" width="320" height="84" as="geometry" />
        </mxCell>
        <mxCell id="j0OqBsVxtlCFyyd33KA1-3" value="" style="line;strokeWidth=1;fillColor=none;align=left;verticalAlign=middle;spacingTop=-1;spacingLeft=3;spacingRight=3;rotatable=0;labelPosition=right;points=[];portConstraint=eastwest;strokeColor=inherit;" parent="j0OqBsVxtlCFyyd33KA1-1" vertex="1">
          <mxGeometry y="110" width="320" height="8" as="geometry" />
        </mxCell>
        <mxCell id="j0OqBsVxtlCFyyd33KA1-4" value="&amp;lt;&amp;lt;constructor&amp;gt;&amp;gt;+Cuenta(float saldo, float tasaAnual)&lt;div&gt;+consignar(float cantidad)&lt;/div&gt;&lt;div&gt;+retirar(float cantidad)&lt;/div&gt;&lt;div&gt;+calcularInterés()&lt;/div&gt;&lt;div&gt;+extractoMensual()&lt;/div&gt;&lt;div&gt;&lt;br&gt;&lt;/div&gt;&lt;div&gt;&lt;br&gt;&lt;/div&gt;" style="text;strokeColor=none;fillColor=none;align=left;verticalAlign=top;spacingLeft=4;spacingRight=4;overflow=hidden;rotatable=0;points=[[0,0.5],[1,0.5]];portConstraint=eastwest;whiteSpace=wrap;html=1;" parent="j0OqBsVxtlCFyyd33KA1-1" vertex="1">
          <mxGeometry y="118" width="320" height="112" as="geometry" />
        </mxCell>
        <mxCell id="R2WdfzUIB0Nas5h1J5XU-1" value="Cuenta Ahorros" style="swimlane;fontStyle=1;align=center;verticalAlign=top;childLayout=stackLayout;horizontal=1;startSize=26;horizontalStack=0;resizeParent=1;resizeParentMax=0;resizeLast=0;collapsible=1;marginBottom=0;whiteSpace=wrap;html=1;" vertex="1" parent="1">
          <mxGeometry x="510" y="110" width="350" height="140" as="geometry" />
        </mxCell>
        <mxCell id="R2WdfzUIB0Nas5h1J5XU-2" value="&lt;div&gt;#activa: boolean&lt;/div&gt;" style="text;strokeColor=none;fillColor=none;align=left;verticalAlign=top;spacingLeft=4;spacingRight=4;overflow=hidden;rotatable=0;points=[[0,0.5],[1,0.5]];portConstraint=eastwest;whiteSpace=wrap;html=1;" vertex="1" parent="R2WdfzUIB0Nas5h1J5XU-1">
          <mxGeometry y="26" width="350" height="24" as="geometry" />
        </mxCell>
        <mxCell id="R2WdfzUIB0Nas5h1J5XU-3" value="" style="line;strokeWidth=1;fillColor=none;align=left;verticalAlign=middle;spacingTop=-1;spacingLeft=3;spacingRight=3;rotatable=0;labelPosition=right;points=[];portConstraint=eastwest;strokeColor=inherit;" vertex="1" parent="R2WdfzUIB0Nas5h1J5XU-1">
          <mxGeometry y="50" width="350" height="8" as="geometry" />
        </mxCell>
        <mxCell id="R2WdfzUIB0Nas5h1J5XU-4" value="&amp;lt;&amp;lt;constructor&amp;gt;&amp;gt;+CuentaAhorros(float saldo, float tasa)&lt;div&gt;+retirar(float cantidad)&lt;/div&gt;&lt;div&gt;+consignar(float cantidad)&lt;/div&gt;&lt;div&gt;+extractoMensual()&lt;/div&gt;&lt;div&gt;+imprimir()&lt;/div&gt;&lt;div&gt;&lt;br&gt;&lt;/div&gt;&lt;div&gt;&lt;br&gt;&lt;/div&gt;" style="text;strokeColor=none;fillColor=none;align=left;verticalAlign=top;spacingLeft=4;spacingRight=4;overflow=hidden;rotatable=0;points=[[0,0.5],[1,0.5]];portConstraint=eastwest;whiteSpace=wrap;html=1;" vertex="1" parent="R2WdfzUIB0Nas5h1J5XU-1">
          <mxGeometry y="58" width="350" height="82" as="geometry" />
        </mxCell>
        <mxCell id="R2WdfzUIB0Nas5h1J5XU-6" style="edgeStyle=orthogonalEdgeStyle;rounded=0;orthogonalLoop=1;jettySize=auto;html=1;" edge="1" parent="1" source="R2WdfzUIB0Nas5h1J5XU-4" target="j0OqBsVxtlCFyyd33KA1-2">
          <mxGeometry relative="1" as="geometry" />
        </mxCell>
        <mxCell id="R2WdfzUIB0Nas5h1J5XU-7" value="CuentaCorriente" style="swimlane;fontStyle=1;align=center;verticalAlign=top;childLayout=stackLayout;horizontal=1;startSize=26;horizontalStack=0;resizeParent=1;resizeParentMax=0;resizeLast=0;collapsible=1;marginBottom=0;whiteSpace=wrap;html=1;" vertex="1" parent="1">
          <mxGeometry x="510" y="330" width="350" height="140" as="geometry" />
        </mxCell>
        <mxCell id="R2WdfzUIB0Nas5h1J5XU-8" value="&lt;div&gt;#sobregiro: float&lt;/div&gt;" style="text;strokeColor=none;fillColor=none;align=left;verticalAlign=top;spacingLeft=4;spacingRight=4;overflow=hidden;rotatable=0;points=[[0,0.5],[1,0.5]];portConstraint=eastwest;whiteSpace=wrap;html=1;" vertex="1" parent="R2WdfzUIB0Nas5h1J5XU-7">
          <mxGeometry y="26" width="350" height="24" as="geometry" />
        </mxCell>
        <mxCell id="R2WdfzUIB0Nas5h1J5XU-9" value="" style="line;strokeWidth=1;fillColor=none;align=left;verticalAlign=middle;spacingTop=-1;spacingLeft=3;spacingRight=3;rotatable=0;labelPosition=right;points=[];portConstraint=eastwest;strokeColor=inherit;" vertex="1" parent="R2WdfzUIB0Nas5h1J5XU-7">
          <mxGeometry y="50" width="350" height="8" as="geometry" />
        </mxCell>
        <mxCell id="R2WdfzUIB0Nas5h1J5XU-10" value="&amp;lt;&amp;lt;constructor&amp;gt;&amp;gt;+CuentaCorriente(float saldo, float tasa)&lt;div&gt;+retirar(float cantidad)&lt;/div&gt;&lt;div&gt;+consignar(float cantidad)&lt;/div&gt;&lt;div&gt;+extractoMensual()&lt;/div&gt;&lt;div&gt;+imprimir()&lt;/div&gt;&lt;div&gt;&lt;br&gt;&lt;/div&gt;&lt;div&gt;&lt;br&gt;&lt;/div&gt;" style="text;strokeColor=none;fillColor=none;align=left;verticalAlign=top;spacingLeft=4;spacingRight=4;overflow=hidden;rotatable=0;points=[[0,0.5],[1,0.5]];portConstraint=eastwest;whiteSpace=wrap;html=1;" vertex="1" parent="R2WdfzUIB0Nas5h1J5XU-7">
          <mxGeometry y="58" width="350" height="82" as="geometry" />
        </mxCell>
        <mxCell id="R2WdfzUIB0Nas5h1J5XU-11" style="edgeStyle=orthogonalEdgeStyle;rounded=0;orthogonalLoop=1;jettySize=auto;html=1;entryX=1.003;entryY=0.402;entryDx=0;entryDy=0;entryPerimeter=0;" edge="1" parent="1" source="R2WdfzUIB0Nas5h1J5XU-8" target="j0OqBsVxtlCFyyd33KA1-4">
          <mxGeometry relative="1" as="geometry" />
        </mxCell>
      </root>
    </mxGraphModel>
  </diagram>
</mxfile>
